<?xml version="1.0" encoding="utf-8"?><!DOCTYPE svg PUBLIC "-//W3C//DTD SVG 1.1//EN" "http://www.w3.org/Graphics/SVG/1.1/DTD/svg11.dtd"><svg version="1.1" xmlns="http://www.w3.org/2000/svg" xmlns:xlink="http://www.w3.org/1999/xlink" width="32" height="32" viewBox="0 0 32 32" data-tags="diamond,gem"><g fill="#444" transform="scale(0.03125 0.03125)"><path d="M1005.248 309.664l-162.56-162.592c-12-12-28.32-18.752-45.248-18.752h-570.848c-16.96 0-33.248 6.752-45.248 18.752l-162.56 162.592c-12.576 12.544-18.848 29.088-18.784 45.664 0.096 15.040 5.472 30.048 16.192 42.112l447.968 477.056c12.16 13.696 29.568 21.504 47.84 21.504 18.272 0 35.68-7.808 47.808-21.504l448-477.056c10.944-12.32 16.32-27.744 16.192-43.136-0.128-16.192-6.432-32.32-18.752-44.64zM583.008 352.32h-142.048l71.040-59.168 71.008 59.168zM537.024 272.32l87.424-72.896 64.576 64.576-81.024 67.488-70.976-59.168zM416 331.488l-81.024-67.488 64.576-64.576 87.456 72.896-71.008 59.168zM591.68 384.32l-79.68 398.496-79.68-398.496h159.36zM624.32 384.32h156.992l-235.488 392.608 78.496-392.608zM632.928 352.32l78.816-65.632 65.632 65.632-144.448-0zM662.624 192.32h112.384l-61.312 51.104-51.072-51.104zM512 251.52l-71.040-59.2h142.016l-70.976 59.2zM310.272 243.424l-61.312-51.104h112.416l-51.104 51.104zM312.256 286.688l78.784 65.632-144.416 0 65.632-65.632zM399.68 384.32l78.496 392.608-235.52-392.608h157.024zM406.528 719.616l-314.88-335.296h113.728l201.152 335.296zM818.624 384.32h113.76l-314.944 335.36 201.184-335.36zM822.624 352.32l-86.176-86.176 73.504-61.28 147.424 147.456h-134.752zM213.952 204.8l73.632 61.344-86.208 86.176h-137.184l149.76-147.52z" /></g></svg>